# xmcd CD database file
#
# Track frame offsets:
#       150
#       19502
#       39280
#       57662
#       72150
#       88665
#       104357
#       122242
#       131345
#       148777
#       165495
#       183295
#       197017
#
# Disc length: 2876 seconds
#
# Revision: 0
# Processed by: cddbd v1.5.1PL0 Copyright (c) Steve Scherf et al.
# Submitted via: jack 2.99.6
#
DISCID=b00b3a0d
DTITLE=The Whiteley Brothers - Taking Our Time
DYEAR=1900
DGENRE=
TTITLE0=Homeless Man
TTITLE1=Hold It
TTITLE2=Get These Things for Me
TTITLE3=Looking for the Blues
TTITLE4=Shufflin' and Shaggin'
TTITLE5=Saskatchewan Blues
TTITLE6=I Don't Mind
TTITLE7=I'll be Looking for You
TTITLE8=Stranger In Your Home
TTITLE9=Perfume and Tobacco
TTITLE10=Full Moon In June
TTITLE11=On This Journey
TTITLE12=Take Your Time
EXTD=
EXTT0=
EXTT1=
EXTT2=
EXTT3=
EXTT4=
EXTT5=
EXTT6=
EXTT7=
EXTT8=
EXTT9=
EXTT10=
EXTT11=
EXTT12=
PLAYORDER=
